<svg width="128" height="128" viewBox="0 0 128 128" fill="none" xmlns="http://www.w3.org/2000/svg">
<path d="M108.023 16H61.8047C61.8047 27.52 71.1287 36.848 82.6517 36.848H91.1517V45.074C91.1517 56.594 100.48 65.922 112 65.922V19.977C111.999 18.9225 111.58 17.9114 110.834 17.1657C110.088 16.4201 109.077 16.0008 108.023 16Z" fill="#2684FF"/>
<path d="M85.1213 39.0401H38.9023C38.9023 50.5591 48.2273 59.8871 59.7463 59.8871H68.2503V68.1131C68.2503 79.6331 77.5783 88.9611 89.0983 88.9611V43.0161C89.0968 41.9618 88.6772 40.9511 87.9318 40.2057C87.1863 39.4602 86.1756 39.0406 85.1213 39.0391V39.0401Z" fill="url(#paint0_linear_2_6045)"/>
<path d="M62.219 62.0781H16C16 73.6021 25.324 82.9261 36.848 82.9261H45.348V91.1561C45.348 102.676 54.676 112 66.195 112V66.0591C66.1939 65.0046 65.7748 63.9935 65.0295 63.2474C64.2842 62.5014 63.2735 62.0812 62.219 62.0791V62.0781Z" fill="url(#paint1_linear_2_6045)"/>
<defs>
<linearGradient id="paint0_linear_2_6045" x1="88.1363" y1="39.0921" x2="68.4723" y2="59.3681" gradientUnits="userSpaceOnUse">
<stop offset="0.176" stop-color="#0052CC"/>
<stop offset="1" stop-color="#2684FF"/>
</linearGradient>
<linearGradient id="paint1_linear_2_6045" x1="66.564" y1="62.2561" x2="43.828" y2="84.3761" gradientUnits="userSpaceOnUse">
<stop offset="0.176" stop-color="#0052CC"/>
<stop offset="1" stop-color="#2684FF"/>
</linearGradient>
</defs>
</svg>
